# xmcd
#
# Track frame offsets: 
#        150
#        22165
#        40451
#        62433
#        79380
#        98905
#        115684
#        133893
#        146536
#        166020
#        173178
#        195907
#        207371
#        221825
#        240166
#        246041
#
# Disc length: 3473 seconds
#
# Revision: 8
# Processed by: cddbd v1.5.2PL0 Copyright (c) Steve Scherf et al.
# Submitted via: ExactAudioCopy v0.99pb3
#
DISCID=dd0d8f10
DTITLE=Ed Motta - Manual Prático para Festas Bailes e Afins - Vol.
DYEAR=1997
DGENRE=Soul
TTITLE0=Daqui pro Méier
TTITLE1=Vendaval
TTITLE2=Fora da Lei
TTITLE3=Lustres e Pingentes
TTITLE4=Birinaite
TTITLE5=Por Você Ser Mais
TTITLE6=Como Dois Cristais
TTITLE7=A Flor do Querer
TTITLE8=Dias de Paz
TTITLE9=A Loja do Subsolo (vinheta)
TTITLE10=Luna e Sera
TTITLE11=Mentiras Fáceis
TTITLE12=Falso Milagre do Amor
TTITLE13=Quais Serão Meus Desejos?
TTITLE14=Cartão de Visita (vinheta)
TTITLE15=Falso Milagre do Amor (Versão Metais em Brasa)
EXTD=
EXTT0=
EXTT1=
EXTT2=
EXTT3=
EXTT4=
EXTT5=
EXTT6=
EXTT7=
EXTT8=
EXTT9=
EXTT10=
EXTT11=
EXTT12=
EXTT13=
EXTT14=
EXTT15=
PLAYORDER=
